<?xml version="1.0" standalone="no"?>
<!DOCTYPE svg PUBLIC "-//W3C//DTD SVG 20010904//EN"
 "http://www.w3.org/TR/2001/REC-SVG-20010904/DTD/svg10.dtd">
<svg version="1.0" xmlns="http://www.w3.org/2000/svg"
 width="900.000000pt" height="920.000000pt" viewBox="0 0 900.000000 920.000000"
 preserveAspectRatio="xMidYMid meet">

<g transform="translate(0.000000,920.000000) scale(0.100000,-0.100000)"
fill="#000000" stroke="none">
<path d="M4220 9094 c-19 -2 -87 -9 -150 -15 -1092 -101 -2125 -616 -2875
-1435 -529 -578 -903 -1292 -1069 -2041 -79 -357 -106 -605 -107 -983 -1 -489
59 -894 203 -1355 54 -175 149 -416 166 -422 37 -15 302 101 446 194 269 173
554 471 856 894 57 79 218 317 358 529 487 734 671 983 976 1312 534 579 1175
912 1881 977 199 19 493 24 615 11 403 -41 761 -187 1065 -433 91 -74 222
-204 213 -212 -3 -3 -63 -14 -134 -25 -475 -70 -858 -216 -974 -372 -166 -222
-225 -404 -224 -688 1 -249 54 -466 173 -697 387 -754 1288 -1140 2456 -1052
260 19 692 85 718 109 5 4 24 70 42 147 103 421 142 815 125 1238 -16 416 -65
719 -175 1098 -162 561 -436 1083 -819 1562 -132 164 -444 484 -596 610 -707
586 -1497 924 -2410 1031 -127 15 -674 28 -760 18z"/>
<path d="M4943 6383 c-29 -2 -53 -7 -53 -11 0 -4 -15 -7 -32 -7 -43 -1 -126
-12 -137 -20 -5 -3 -22 -7 -38 -9 -33 -4 -82 -15 -103 -23 -20 -8 -30 -10 -63
-11 -16 -1 -26 -6 -23 -11 3 -5 -5 -8 -18 -8 -33 0 -256 -85 -250 -95 3 -4 13
-8 22 -9 25 -1 -17 -18 -43 -17 -16 0 -16 2 5 9 20 7 17 7 -13 3 -21 -3 -55
-15 -75 -26 -20 -12 -47 -26 -59 -33 -13 -7 -19 -16 -15 -20 4 -4 0 -5 -8 -3
-17 6 -85 -25 -96 -44 -6 -9 -3 -9 9 1 9 7 17 9 17 3 0 -13 -29 -24 -42 -16
-6 4 -13 3 -17 -2 -10 -14 -69 -54 -80 -54 -5 0 -16 -9 -24 -20 -8 -11 -16
-18 -19 -15 -3 3 -19 -8 -37 -24 -17 -16 -31 -27 -31 -24 0 3 -7 0 -15 -7 -9
-7 -13 -20 -10 -28 4 -11 2 -12 -8 -4 -10 9 -17 6 -27 -8 -8 -11 -19 -20 -25
-20 -17 0 -66 -55 -58 -65 5 -4 1 -6 -8 -2 -19 6 -64 -35 -52 -48 5 -4 3 -5
-3 -2 -6 3 -49 -30 -95 -74 -69 -65 -81 -82 -69 -90 13 -9 13 -10 -1 -6 -18 6
-77 -47 -62 -55 4 -3 3 -3 -4 -2 -14 4 -83 -73 -83 -92 0 -7 -5 -16 -12 -20
-7 -5 -8 -3 -3 7 8 12 6 12 -8 0 -10 -8 -16 -16 -14 -18 2 -2 -16 -25 -40 -51
-25 -26 -100 -121 -169 -212 -68 -91 -127 -169 -132 -175 -10 -12 -73 -104
-87 -126 -18 -28 -464 -698 -568 -854 -321 -479 -586 -796 -866 -1034 -180
-154 -447 -309 -656 -381 -49 -17 -91 -33 -93 -35 -12 -12 287 -466 423 -640
272 -350 603 -676 938 -924 515 -381 1116 -642 1752 -760 285 -53 431 -65 795
-65 435 -1 664 24 1050 114 1052 245 1986 836 2597 1645 235 311 445 711 553
1056 l28 91 -31 -6 c-100 -18 -383 -47 -559 -57 -629 -36 -1208 57 -1675 269
-420 190 -768 484 -998 842 -119 184 -232 468 -275 686 -41 210 -38 520 8 701
10 40 15 70 11 67 -4 -2 -11 1 -15 7 -4 7 -3 9 3 6 14 -9 30 11 39 48 4 17 22
61 40 99 19 37 31 73 27 79 -3 5 -2 7 4 4 6 -4 19 10 29 31 10 20 40 64 66 96
26 33 44 64 41 69 -3 6 -1 7 4 4 12 -7 36 16 28 26 -3 4 -2 5 2 2 9 -7 43 26
43 42 0 8 5 11 10 8 6 -3 10 -1 10 5 0 6 4 9 8 6 5 -3 26 12 49 32 22 20 42
38 44 39 2 1 28 12 57 25 29 13 49 28 45 32 -4 5 -1 7 7 4 22 -7 135 36 132
50 -2 10 3 10 17 2 23 -12 34 -13 28 -2 -3 4 31 8 74 9 44 2 88 7 98 13 12 6
36 7 65 1 59 -11 60 2 1 16 -34 8 -51 7 -70 -3 -14 -7 -27 -9 -30 -3 -9 14
-27 11 -19 -3 4 -7 -2 -4 -14 6 -28 24 -23 29 16 15 23 -8 36 -8 49 1 16 10
16 11 -4 7 -12 -3 -23 -2 -25 2 -5 12 -305 63 -330 56 -18 -5 -20 -4 -8 4 12
9 10 11 -10 11 -28 1 -77 6 -200 20 -80 9 -420 11 -537 3z m226 -19 c10 -9
-45 -3 -59 6 -11 7 -5 8 20 4 19 -4 37 -8 39 -10z m136 5 c-22 -4 -56 -7 -75
-7 -32 1 -31 2 10 8 25 4 59 7 75 7 25 1 23 -1 -10 -8z m132 -5 c-3 -3 -12 -4
-19 -1 -8 3 -5 6 6 6 11 1 17 -2 13 -5z m-562 -22 c-3 -3 -11 0 -18 7 -9 10
-8 11 6 5 10 -3 15 -9 12 -12z m175 8 c-12 -8 -10 -10 9 -10 13 0 22 -3 18 -6
-3 -4 -18 -3 -32 0 -27 7 -25 26 3 26 15 0 15 -2 2 -10z m315 1 c-3 -5 5 -12
17 -14 20 -4 19 -4 -4 -6 -27 -1 -35 8 -21 22 9 10 15 8 8 -2z m142 3 c-3 -3
-12 -4 -19 -1 -8 3 -5 6 6 6 11 1 17 -2 13 -5z m56 -1 c-7 -2 -21 -2 -30 0
-10 3 -4 5 12 5 17 0 24 -2 18 -5z m-752 -10 c-11 -5 -11 -7 0 -15 12 -8 12
-9 0 -6 -22 6 -25 28 -4 27 12 0 14 -2 4 -6z m112 0 c-7 -2 -19 -2 -25 0 -7 3
-2 5 12 5 14 0 19 -2 13 -5z m527 -3 c0 -5 -8 -10 -17 -10 -15 0 -16 2 -3 10
19 12 20 12 20 0z m163 3 c-7 -2 -19 -2 -25 0 -7 3 -2 5 12 5 14 0 19 -2 13
-5z m-46 -9 c-3 -3 -12 -4 -19 -1 -8 3 -5 6 6 6 11 1 17 -2 13 -5z m196 -11
c-7 -2 -19 -2 -25 0 -7 3 -2 5 12 5 14 0 19 -2 13 -5z m184 -29 c-3 -3 -12 -4
-19 -1 -8 3 -5 6 6 6 11 1 17 -2 13 -5z m-1400 -20 c-3 -3 -12 -4 -19 -1 -8 3
-5 6 6 6 11 1 17 -2 13 -5z m-40 -10 c-3 -3 -12 -4 -19 -1 -8 3 -5 6 6 6 11 1
17 -2 13 -5z m53 -11 c0 -5 -11 -8 -24 -8 -13 0 -22 3 -19 8 2 4 13 7 24 7 10
0 19 -3 19 -7z m1403 0 c-7 -2 -21 -2 -30 0 -10 3 -4 5 12 5 17 0 24 -2 18 -5z
m-228 -33 c28 -10 43 -19 35 -19 -14 0 -101 36 -90 38 3 1 28 -8 55 -19z m85
-1 c0 -5 -4 -9 -8 -9 -5 0 -9 7 -9 15 0 8 4 12 9 9 4 -3 8 -9 8 -15z m-275
-99 c-3 -6 -11 -10 -18 -10 -8 0 -8 3 0 11 6 6 9 19 6 28 -4 13 -2 13 7 -2 6
-9 8 -22 5 -27z m40 20 c3 -5 -1 -10 -9 -10 -9 0 -16 5 -16 10 0 6 4 10 9 10
6 0 13 -4 16 -10z m-1447 -18 c2 -7 -2 -10 -12 -6 -9 3 -16 11 -16 16 0 13 23
5 28 -10z m1432 -22 c0 -5 -4 -10 -10 -10 -5 0 -10 5 -10 10 0 6 5 10 10 10 6
0 10 -4 10 -10z m-43 -25 c0 -8 -4 -15 -9 -15 -10 0 -11 14 -1 23 9 10 10 9
10 -8z m-72 -4 c3 -5 2 -12 -3 -15 -5 -3 -9 1 -9 9 0 17 3 19 12 6z m45 -12
c0 -5 -5 -9 -12 -9 -6 0 -21 -8 -32 -17 -18 -15 -18 -14 2 8 12 14 19 29 15
33 -4 4 0 4 10 0 9 -3 17 -10 17 -15z m-80 -62 c0 -2 -10 -12 -22 -23 l-23
-19 19 23 c18 21 26 27 26 19z m-1585 -57 c-3 -5 -12 -10 -18 -10 -7 0 -6 4 3
10 19 12 23 12 15 0z m-84 -57 c-12 -20 -14 -14 -5 12 4 9 9 14 11 11 3 -2 0
-13 -6 -23z m-76 -102 c-3 -6 -11 -11 -16 -11 -5 0 -4 6 3 14 14 16 24 13 13
-3z m-70 0 c3 -5 2 -12 -3 -15 -5 -3 -9 1 -9 9 0 17 3 19 12 6z m-45 -36 c0
-8 -4 -15 -10 -15 -5 0 -7 7 -4 15 4 8 8 15 10 15 2 0 4 -7 4 -15z m-160 -159
c0 -2 -8 -10 -17 -17 -16 -13 -17 -12 -4 4 13 16 21 21 21 13z"/>
<path d="M6188 6243 c7 -3 16 -2 19 1 4 3 -2 6 -13 5 -11 0 -14 -3 -6 -6z"/>
</g>
</svg>
